<svg xmlns="http://www.w3.org/2000/svg" viewBox="0 0 680 680"><path d="M501.8 46.7C467.7 20.6 426.8 5.5 382 1.3 333.3-3.3 281 3 247.8 41.7c-21.8 25.4-30.7 65-58.4 82.7-26.4 16.8-57.4 15.4-83.8 32.3-37.5 24.1-61.7 89.8-28.1 131.6 9.9 12.4 21 24.6 22.8 43.1 1.9 20.1-7.5 38.1-13.9 55.6-28.3 76.8-3.2 165.8 50.1 213.1 22.9 20.4 49.7 33.8 77 41.3 29.9 8.2 60.9 6.9 90.8 14.9 50.1 13.4 97.4 43.3 144.5 4.5 33.2-27.3 47.4-72.1 78.4-102.1 20.2-19.6 46.9-28.1 66.3-48.4 6-6.3 11.3-13.6 15.5-22.8 7.8-17 10.3-37.3 9.3-57-2.4-49.7-21.5-99.2-44.6-138.9-7-12-14.7-23.4-20.5-36.4-11.6-25.8-7.3-49.2-3.7-76.9 6.3-49.7-6.1-99.8-47.7-131.6z" fill="#143b63"/></svg>