<svg data-name="Capa 3" xmlns="http://www.w3.org/2000/svg" viewBox="0 0 425 425"><path d="M414.68 328.22c-2.42-10.18-8.44-18.86-15.3-26.58-7.57-8.52-16.25-16-23.33-25a73.69 73.69 0 01-15.36-36.93c-3-25.06 8.73-47.66 18.91-69.69 8.72-18.88 16.24-38.79 16.15-59.87-.08-18-4.79-36.28-14.29-51.64-11.23-18.17-28.12-29-48-35.85-26.58-9.17-56-7-83.69-7-23.56 0-47.17-1.12-70.5-4.52C157 7.92 135 0 112.07 2.13A43.15 43.15 0 0097.35 5.8a57.31 57.31 0 00-31.66 40.13c-5 25.19 12 45.88 16.19 69.68 4.66 26.52-8.37 51.87-20.73 74.38S36.5 234.68 31.92 260.2c-4.27 23.8-1 47.61 13.33 67.51 7 9.73 15.41 18.39 21.85 28.53 6.57 10.35 8.66 22.08 13.44 33.18 8.72 20.24 29.42 26.7 50.09 24.31 25.9-3 48-19.76 74.11-22 26.73-2.3 51.81 9.82 77.05 16.52 25.56 6.78 52.37 6.42 77.36-2.62 21.54-7.79 42.73-22 52-43.69 4.56-10.55 6.2-22.46 3.53-33.72z"/></svg>